<svg width="68" height="75" viewBox="0 0 68 75" fill="none" xmlns="http://www.w3.org/2000/svg">
<g filter="url(#filter0_d_69_467)">
<path d="M56.6271 31.2382L15.0215 6.48856C14.5413 6.2031 13.9794 6.03593 13.3967 6.00517C12.8139 5.97441 12.2324 6.08122 11.7152 6.31405C11.198 6.54687 10.7648 6.89683 10.4625 7.32603C10.1601 7.75524 10.0002 8.24733 10 8.74903L10 58.2482C9.99961 58.7501 10.1591 59.2426 10.4612 59.6722C10.7633 60.1018 11.1965 60.4522 11.7138 60.6853C12.2311 60.9185 12.8128 61.0255 13.3959 60.9949C13.9789 60.9642 14.5411 60.797 15.0215 60.5114L56.6271 35.7618C57.051 35.5077 57.3971 35.1693 57.6362 34.7755C57.8752 34.3817 58 33.9441 58 33.5C58 33.0559 57.8752 32.6183 57.6362 32.2245C57.3971 31.8307 57.051 31.4923 56.6271 31.2382Z" fill="#FFFCF5" fill-opacity="0.6" shape-rendering="crispEdges"/>
</g>
<defs>
<filter id="filter0_d_69_467" x="0" y="0" width="68" height="75" filterUnits="userSpaceOnUse" color-interpolation-filters="sRGB">
<feFlood flood-opacity="0" result="BackgroundImageFix"/>
<feColorMatrix in="SourceAlpha" type="matrix" values="0 0 0 0 0 0 0 0 0 0 0 0 0 0 0 0 0 0 127 0" result="hardAlpha"/>
<feOffset dy="4"/>
<feGaussianBlur stdDeviation="5"/>
<feComposite in2="hardAlpha" operator="out"/>
<feColorMatrix type="matrix" values="0 0 0 0 0 0 0 0 0 0 0 0 0 0 0 0 0 0 0.25 0"/>
<feBlend mode="normal" in2="BackgroundImageFix" result="effect1_dropShadow_69_467"/>
<feBlend mode="normal" in="SourceGraphic" in2="effect1_dropShadow_69_467" result="shape"/>
</filter>
</defs>
</svg>
