<svg width="140" height="140" viewBox="0 0 140 140" fill="none" xmlns="http://www.w3.org/2000/svg">
<g filter="url(#filter0_i_526_566)">
<circle cx="65.6358" cy="48.6358" r="48.6358" fill="#FFFCF5"/>
</g>
<rect x="71.395" y="72.4819" width="12.6192" height="53.5502" rx="3" transform="rotate(-30 71.395 72.4819)" fill="url(#paint0_linear_526_566)"/>
<path d="M86.0288 65.8594C85.4829 64.914 85.4937 63.7466 86.0571 62.8114L88.8642 58.1513L89.9597 56.3326C91.1386 54.3756 93.9852 54.402 95.1276 56.3806L118.885 97.5303C119.463 98.5309 119.414 99.7748 118.761 100.728C117.217 102.979 115.986 104.774 114.612 106.777C113.363 108.597 110.643 108.492 109.539 106.581L86.0288 65.8594Z" fill="#58613E"/>
<path d="M69.2714 75.5337C68.7256 74.5883 67.7092 74.014 66.6177 74.0342L59.0555 74.1746C56.7712 74.2171 55.3708 76.6955 56.5131 78.6741L80.2709 119.824C80.8486 120.824 81.9496 121.404 83.1016 121.315L90.4164 120.746C92.6169 120.575 93.8855 118.167 92.782 116.255L69.2714 75.5337Z" fill="#B18E7B"/>
<ellipse cx="72.78" cy="62.1081" rx="9.17657" ry="3.90004" transform="rotate(-30 72.78 62.1081)" fill="#5A574B"/>
<rect x="71.395" y="72.4819" width="12.6192" height="53.5502" rx="2" transform="rotate(-30 71.395 72.4819)" fill="url(#paint1_linear_526_566)"/>
<path d="M85.7339 65.3486C85.37 64.7183 85.3772 63.9401 85.7527 63.3166L88.8642 58.1513L90.8346 54.8803C91.6205 53.5756 93.5182 53.5932 94.2798 54.9123L119.201 98.0762C119.586 98.7433 119.553 99.5734 119.117 100.209C117.065 103.201 115.588 105.354 113.714 108.085C112.882 109.299 111.068 109.229 110.333 107.955L85.7339 65.3486Z" fill="#58613E"/>
<path d="M68.9765 75.0229C68.6126 74.3926 67.935 74.0098 67.2074 74.0233L57.3603 74.2061C55.8374 74.2344 54.9038 75.8867 55.6654 77.2058L80.5861 120.37C80.9712 121.037 81.7052 121.423 82.4732 121.364L91.9982 120.623C93.4652 120.509 94.311 118.903 93.5753 117.629L68.9765 75.0229Z" fill="#B18E7B"/>
<ellipse cx="72.78" cy="62.1081" rx="9.17657" ry="3.90004" transform="rotate(-30 72.78 62.1081)" fill="#5A574B"/>
<g clip-path="url(#clip0_526_566)">
<path d="M117.624 139.131L95.1172 125.097L116.724 112.623L117.624 139.131Z" fill="url(#paint2_linear_526_566)"/>
</g>
<path d="M78.6353 37.2695L81.0069 51.974" stroke="#4F493D" stroke-width="3" stroke-linecap="round"/>
<path d="M47.3286 55.7539L59.2117 64.6955" stroke="#4F493D" stroke-width="3" stroke-linecap="round"/>
<path d="M50.2186 48.3338C50.2186 48.3338 56.5748 55.6514 64.0861 42.1012C71.5975 28.551 77.9536 35.8686 77.9536 35.8686" stroke="url(#paint3_linear_526_566)" stroke-width="3" stroke-linecap="round"/>
<defs>
<filter id="filter0_i_526_566" x="13" y="-4" width="101.271" height="101.271" filterUnits="userSpaceOnUse" color-interpolation-filters="sRGB">
<feFlood flood-opacity="0" result="BackgroundImageFix"/>
<feBlend mode="normal" in="SourceGraphic" in2="BackgroundImageFix" result="shape"/>
<feColorMatrix in="SourceAlpha" type="matrix" values="0 0 0 0 0 0 0 0 0 0 0 0 0 0 0 0 0 0 127 0" result="hardAlpha"/>
<feMorphology radius="10" operator="erode" in="SourceAlpha" result="effect1_innerShadow_526_566"/>
<feOffset dx="-4" dy="-4"/>
<feGaussianBlur stdDeviation="25"/>
<feComposite in2="hardAlpha" operator="arithmetic" k2="-1" k3="1"/>
<feColorMatrix type="matrix" values="0 0 0 0 0.545098 0 0 0 0 0.462745 0 0 0 0 0.423529 0 0 0 0.2 0"/>
<feBlend mode="normal" in2="shape" result="effect1_innerShadow_526_566"/>
</filter>
<linearGradient id="paint0_linear_526_566" x1="77.7046" y1="72.4819" x2="77.7046" y2="126.032" gradientUnits="userSpaceOnUse">
<stop stop-color="#BB4E11"/>
</linearGradient>
<linearGradient id="paint1_linear_526_566" x1="77.7046" y1="72.4819" x2="77.7046" y2="126.032" gradientUnits="userSpaceOnUse">
<stop stop-color="#BB4E11"/>
</linearGradient>
<linearGradient id="paint2_linear_526_566" x1="102.019" y1="112.103" x2="117.624" y2="139.131" gradientUnits="userSpaceOnUse">
<stop offset="0.395" stop-color="#C8C2B7"/>
<stop offset="1" stop-color="#FFFCF5"/>
</linearGradient>
<linearGradient id="paint3_linear_526_566" x1="50.2186" y1="48.3338" x2="77.9536" y2="35.8686" gradientUnits="userSpaceOnUse">
<stop stop-color="#EA7333"/>
<stop offset="1" stop-color="#84411D"/>
</linearGradient>
<clipPath id="clip0_526_566">
<rect width="22.9688" height="28.4375" fill="white" transform="translate(94.6562 111.562)"/>
</clipPath>
</defs>
</svg>
