<svg width="39" height="29" viewBox="0 0 39 29" fill="none" xmlns="http://www.w3.org/2000/svg">
<path d="M17.8962 0.829467L0.346434 25.9662C0.144012 26.2563 0.025478 26.5957 0.00366565 26.9478C-0.0181467 27.2999 0.0575935 27.6513 0.222686 27.9637C0.387778 28.2762 0.635934 28.5379 0.940278 28.7206C1.24462 28.9033 1.59356 28.9999 1.94931 29L37.0487 29C37.4047 29.0002 37.7538 28.9039 38.0585 28.7214C38.3631 28.5388 38.6115 28.2771 38.7769 27.9646C38.9422 27.652 39.0181 27.3006 38.9964 26.9483C38.9746 26.5961 38.8561 26.2564 38.6536 25.9662L21.1038 0.829467C20.9236 0.573379 20.6837 0.364237 20.4044 0.219825C20.1252 0.0754121 19.8149 -8.38606e-07 19.5 -8.52372e-07C19.1851 -8.66138e-07 18.8748 0.075412 18.5956 0.219825C18.3163 0.364237 18.0764 0.573379 17.8962 0.829467Z" fill="#BB4E11"/>
</svg>
