<svg width="39" height="29" viewBox="0 0 39 29" fill="none" xmlns="http://www.w3.org/2000/svg">
<path d="M21.1038 28.1705L38.6536 3.03382C38.856 2.74373 38.9745 2.40425 38.9963 2.05216C39.0182 1.70006 38.9424 1.34875 38.7773 1.03628C38.6122 0.7238 38.3641 0.462064 38.0597 0.279405C37.7554 0.0967457 37.4064 0.000125068 37.0507 6.76596e-06L1.95126 2.16323e-06C1.59535 -0.000232487 1.24616 0.0961305 0.941535 0.278648C0.636911 0.461165 0.388474 0.722876 0.223147 1.03541C0.0578197 1.34795 -0.0180906 1.6994 0.00364309 2.05167C0.0253768 2.40393 0.143925 2.74359 0.346441 3.03381L17.8962 28.1705C18.0764 28.4266 18.3163 28.6358 18.5956 28.7802C18.8748 28.9246 19.1851 29 19.5 29C19.8149 29 20.1252 28.9246 20.4044 28.7802C20.6837 28.6358 20.9236 28.4266 21.1038 28.1705Z" fill="#BB4E11"/>
</svg>
