<svg width="30" height="30" viewBox="0 0 30 30" fill="none" xmlns="http://www.w3.org/2000/svg">
<path d="M15.8618 5.10791H18.9674V11.5492H15.8618V5.10791Z" fill="white"/>
<path d="M25.8652 5.75842L25.867 5.75662L24.3037 4.19302C24.2371 4.11905 24.1556 4.05987 24.0647 4.01931C23.9737 3.97875 23.8753 3.9577 23.7757 3.95752C23.7715 3.95752 23.7679 3.95872 23.7637 3.95872H21.0376V3.96592C20.9518 3.97462 20.8684 4.00432 20.8039 4.06912C20.7433 4.13253 20.7068 4.21526 20.701 4.30282H20.6926V11.8946H20.6899C20.6836 12.0796 20.6056 12.255 20.4726 12.3837C20.3395 12.5124 20.1617 12.5844 19.9765 12.5846H9.64063V12.581C9.46213 12.5725 9.29336 12.4972 9.16781 12.3701C9.04226 12.2429 8.96913 12.0732 8.96293 11.8946H8.96023V4.30282H8.94583C8.93236 4.21985 8.89396 4.14294 8.83573 4.08232C8.79204 4.03906 8.73919 4.00616 8.68109 3.98607C8.62298 3.96597 8.56111 3.95919 8.50003 3.96622V3.95782H4.61473C4.52066 3.95778 4.42752 3.97629 4.34062 4.01228C4.25371 4.04828 4.17476 4.10106 4.10828 4.1676C4.04179 4.23414 3.98908 4.31313 3.95316 4.40006C3.91724 4.487 3.89881 4.58016 3.89893 4.67422V25.3265C3.89885 25.4206 3.91732 25.5137 3.95328 25.6006C3.98924 25.6875 4.04199 25.7665 4.10851 25.833C4.17502 25.8994 4.254 25.9522 4.34092 25.9881C4.42783 26.024 4.52098 26.0424 4.61503 26.0423H6.88603V16.1402H6.88873C6.89444 15.979 6.95444 15.8245 7.059 15.7017C7.16355 15.5789 7.30652 15.4951 7.46473 15.4637V15.4598H7.50433C7.53673 15.4553 7.56883 15.4502 7.60213 15.4502H22.4182V15.4529C22.5986 15.4591 22.7698 15.5335 22.8975 15.6611C23.0251 15.7886 23.0996 15.9599 23.1058 16.1402H23.1085V26.0423H25.3828C25.4769 26.0424 25.57 26.0239 25.6568 25.9879C25.7437 25.952 25.8227 25.8992 25.8892 25.8328C25.9557 25.7663 26.0084 25.6874 26.0444 25.6005C26.0804 25.5136 26.0989 25.4205 26.0989 25.3265V6.30862C26.0992 6.30112 26.101 6.29422 26.101 6.28672C26.1009 6.18705 26.0799 6.08852 26.0393 5.9975C25.9987 5.90649 25.9394 5.82503 25.8652 5.75842Z" fill="white"/>
</svg>
